<svg id="Layer_1" data-name="Layer 1" xmlns="http://www.w3.org/2000/svg" viewBox="0 0 982.76 1072.92"><defs><style>.cls-1{fill:#e0d692;}.cls-2{fill:#fff;}</style></defs><title>FloodlightWithText</title><path id="Path_101" data-name="Path 101" class="cls-1" d="M663.18,0H982.76L478.82,1072.92H0V457.27Z"/><path class="cls-2" d="M224.94,392.24l25.4,67.2-17.9,1.8-4.9-14.4H204l-4.7,13.4h-18.1l25.5-68Zm-9.4,21.8-6.5,18.5h13.3Z"/><path class="cls-2" d="M308.14,460.24h-48.8v-68h18.2v53.7h28.9Z"/><path class="cls-2" d="M317.14,460.24v-68h45.1l1.7,14.3h-28.6v12.4h20.9l1.7,14.3h-22.6v12.7h29.9l1.7,14.3Z"/><path class="cls-2" d="M369.94,460.24l23.7-33.8-21.8-31,19.6-5.7,13.7,20.7,11.6-18.2h22.6l-22.7,33.5,22.8,34.5h-23.3l-11-18.6-13.7,18.6Z"/><path class="cls-2" d="M485,460.24v-26.8l-21.6-37.8,17.4-4.8,13.2,25.9,14.1-24.5h18.7l-23.6,41.4v26.6Z"/><path class="cls-2" d="M572.54,392.24l25.4,67.2-17.9,1.8-4.9-14.4h-23.5l-4.7,13.4h-18.1l25.5-68Zm-9.4,21.8-6.5,18.5h13.3Z"/><path class="cls-2" d="M606.94,460.24v-68h16.9l26.2,36.9v-36.9h18.2v68h-17l-26.1-35.8v35.8Z"/><path d="M230.69,387.12l25.4,67.2-17.9,1.8-4.9-14.4h-23.5l-4.7,13.4H187l25.5-68Zm-9.4,21.8-6.5,18.5h13.3Z"/><path d="M313.89,455.12h-48.8v-68h18.2v53.7h28.9Z"/><path d="M322.89,455.12v-68H368l1.71,14.3h-28.6v12.4H362l1.71,14.3h-22.6v12.7H371l1.71,14.3Z"/><path d="M375.69,455.12l23.7-33.8-21.8-31,19.6-5.7,13.7,20.7,11.59-18.2h22.61l-22.7,33.5,22.8,34.5h-23.3l-11-18.6-13.7,18.6Z"/><path d="M490.78,455.12v-26.8l-21.6-37.8,17.4-4.8,13.2,25.9,14.1-24.5h18.7L509,428.52v26.6Z"/><path d="M578.28,387.12l25.4,67.2-17.9,1.8-4.9-14.4h-23.5l-4.7,13.4h-18.1l25.5-68Zm-9.4,21.8-6.5,18.5h13.3Z"/><path d="M612.68,455.12v-68h16.9l26.2,36.9v-36.9H674v68H657l-26.1-35.8v35.8Z"/><path d="M197.79,473.39h4.7l3,8.69,3-8.69h4.74l-4.48,11.95,3.33,8.4,7.44-20.43H225l-10.69,26.27H210l-4.55-11-4.55,11h-4.29L186,473.31h5.47l7.48,20.43,3.25-8.4Z"/><path d="M233.83,500a10.76,10.76,0,0,1-4.22-.79,9.53,9.53,0,0,1-5.27-5.35,10.24,10.24,0,0,1-.72-3.81,10.75,10.75,0,0,1,.7-3.9,9.44,9.44,0,0,1,5.27-5.42,10.84,10.84,0,0,1,4.27-.82,10.55,10.55,0,0,1,4.24.82,9.62,9.62,0,0,1,3.18,2.18,9.23,9.23,0,0,1,2,3.18,10.55,10.55,0,0,1,.69,3.78c0,.32,0,.63,0,.92a4.28,4.28,0,0,1-.1.74h-15a5.84,5.84,0,0,0,.55,2,5.08,5.08,0,0,0,1.15,1.51,5.19,5.19,0,0,0,1.59,1,5.27,5.27,0,0,0,1.85.33,5.75,5.75,0,0,0,2.8-.72,3.83,3.83,0,0,0,1.79-1.91l4.26,1.19a8.67,8.67,0,0,1-3.43,3.64A10.57,10.57,0,0,1,233.83,500Zm5-11.69a5.12,5.12,0,0,0-1.61-3.49,4.9,4.9,0,0,0-3.46-1.32,5,5,0,0,0-1.87.35,5.07,5.07,0,0,0-1.53,1,5.16,5.16,0,0,0-1.1,1.52,5.24,5.24,0,0,0-.49,2Z"/><path d="M258,500a7.87,7.87,0,0,1-4-1,7.28,7.28,0,0,1-2.74-2.74v3.36H247v-27h5v11a7.5,7.5,0,0,1,2.72-2.76,7.7,7.7,0,0,1,3.94-1,7.34,7.34,0,0,1,3.44.82,8.67,8.67,0,0,1,2.68,2.18,10,10,0,0,1,1.74,3.22,12.22,12.22,0,0,1,.61,3.88,11.19,11.19,0,0,1-.68,3.93,10,10,0,0,1-1.91,3.16,9,9,0,0,1-2.89,2.13A8.32,8.32,0,0,1,258,500Zm-1.37-4.21a5.11,5.11,0,0,0,2.18-.47,5,5,0,0,0,1.7-1.24,5.51,5.51,0,0,0,1.09-1.81A6.24,6.24,0,0,0,262,490a6.82,6.82,0,0,0-.37-2.26,6,6,0,0,0-1-1.88,5.43,5.43,0,0,0-1.61-1.3,4.38,4.38,0,0,0-2-.48,4.59,4.59,0,0,0-3,1.09,7.35,7.35,0,0,0-2,2.69v4.62a4,4,0,0,0,.76,1.33,5.15,5.15,0,0,0,1.12,1,5.62,5.62,0,0,0,1.37.67A4.73,4.73,0,0,0,256.66,495.74Z"/><path d="M279.82,499.58V473.31h9.54a14.31,14.31,0,0,1,5.65,1,11.31,11.31,0,0,1,6.49,7,15.68,15.68,0,0,1,.81,5.08,15.44,15.44,0,0,1-.9,5.42A11.73,11.73,0,0,1,298.8,496a11.92,11.92,0,0,1-4.09,2.66,14.4,14.4,0,0,1-5.35.94Zm17.35-13.17a11.09,11.09,0,0,0-.52-3.48,7.7,7.7,0,0,0-1.51-2.73,6.78,6.78,0,0,0-2.46-1.78,8.33,8.33,0,0,0-3.32-.63h-4.44v17.32h4.44a7.89,7.89,0,0,0,3.35-.67,6.68,6.68,0,0,0,2.44-1.83,8,8,0,0,0,1.5-2.76A10.88,10.88,0,0,0,297.17,486.41Z"/><path d="M314.82,500a10.79,10.79,0,0,1-4.22-.79,9.53,9.53,0,0,1-5.27-5.35,10.24,10.24,0,0,1-.72-3.81,10.75,10.75,0,0,1,.7-3.9,9.52,9.52,0,0,1,5.27-5.42,10.85,10.85,0,0,1,4.28-.82,10.53,10.53,0,0,1,4.23.82,9.62,9.62,0,0,1,3.18,2.18,9.08,9.08,0,0,1,2,3.18,10.55,10.55,0,0,1,.69,3.78c0,.32,0,.63,0,.92a3.55,3.55,0,0,1-.09.74h-15a5.84,5.84,0,0,0,.56,2,4.89,4.89,0,0,0,1.14,1.51,5.19,5.19,0,0,0,1.59,1,5.31,5.31,0,0,0,1.85.33,5.75,5.75,0,0,0,2.8-.72,3.83,3.83,0,0,0,1.79-1.91l4.26,1.19a8.67,8.67,0,0,1-3.43,3.64A10.57,10.57,0,0,1,314.82,500Zm5-11.69a5.12,5.12,0,0,0-1.61-3.49,4.9,4.9,0,0,0-3.46-1.32,4.86,4.86,0,0,0-3.4,1.33,5,5,0,0,0-1.09,1.52,5.25,5.25,0,0,0-.5,2Z"/><path d="M335.32,500a15,15,0,0,1-4.78-.77,11.72,11.72,0,0,1-4-2.22l1.85-3.11a15.74,15.74,0,0,0,3.46,1.9,9.1,9.1,0,0,0,3.35.65,4.25,4.25,0,0,0,2.33-.55,1.8,1.8,0,0,0,.85-1.59,1.59,1.59,0,0,0-1-1.52,21.76,21.76,0,0,0-3.26-1.11c-1.25-.35-2.33-.68-3.22-1a8.19,8.19,0,0,1-2.14-1.09,3.85,3.85,0,0,1-1.19-1.41,4.56,4.56,0,0,1-.37-1.9,6.09,6.09,0,0,1,.58-2.67,5.71,5.71,0,0,1,1.61-2,7.46,7.46,0,0,1,2.42-1.28,9.76,9.76,0,0,1,3-.44,12.91,12.91,0,0,1,4.08.63,9.93,9.93,0,0,1,3.5,2l-2,3a11.71,11.71,0,0,0-2.86-1.63,7.79,7.79,0,0,0-2.76-.52,4,4,0,0,0-2.11.52,1.8,1.8,0,0,0-.85,1.66,1.71,1.71,0,0,0,.2.86,1.79,1.79,0,0,0,.65.59,6.71,6.71,0,0,0,1.17.5c.48.16,1.07.32,1.79.5,1.33.34,2.47.69,3.42,1a9.18,9.18,0,0,1,2.33,1.19,4.2,4.2,0,0,1,1.34,1.53,4.78,4.78,0,0,1,.42,2.09,5.4,5.4,0,0,1-2.11,4.5A9.06,9.06,0,0,1,335.32,500Z"/><path d="M346.38,477.5v-4.93h5v4.93Zm0,22.08V480.2h5v19.38Z"/><path d="M363.4,499.7a7.94,7.94,0,0,1-3.55-.78,8.67,8.67,0,0,1-2.76-2.13,9.58,9.58,0,0,1-1.79-3.13,11.17,11.17,0,0,1-.63-3.77,11.36,11.36,0,0,1,.66-3.92,10.22,10.22,0,0,1,1.85-3.18,8.39,8.39,0,0,1,2.85-2.15,8.53,8.53,0,0,1,3.67-.78,7.52,7.52,0,0,1,3.95,1,8.62,8.62,0,0,1,2.82,2.72v-3.4h4.33v18.46a8.88,8.88,0,0,1-.82,3.85,8.43,8.43,0,0,1-2.24,2.88,10,10,0,0,1-3.4,1.82,14.16,14.16,0,0,1-4.31.63,12.2,12.2,0,0,1-5.35-1.06,10.91,10.91,0,0,1-3.72-3l2.7-2.62a7.76,7.76,0,0,0,2.8,2.14,8.38,8.38,0,0,0,3.57.78,7.65,7.65,0,0,0,2.2-.32,5.23,5.23,0,0,0,1.87-1,4.58,4.58,0,0,0,1.28-1.7,6.07,6.07,0,0,0,.46-2.44v-2.44a6.5,6.5,0,0,1-2.7,2.57A8,8,0,0,1,363.4,499.7Zm1.66-4a4.77,4.77,0,0,0,1.56-.26,5.68,5.68,0,0,0,2.48-1.74,5.07,5.07,0,0,0,.74-1.26v-4.62a6,6,0,0,0-2.09-2.74,5,5,0,0,0-3-1,4.28,4.28,0,0,0-2.07.5,5.09,5.09,0,0,0-1.59,1.33,5.85,5.85,0,0,0-1,1.91,6.88,6.88,0,0,0-.35,2.22,6,6,0,0,0,.4,2.22,5.71,5.71,0,0,0,1.13,1.81,5.12,5.12,0,0,0,1.69,1.22A4.89,4.89,0,0,0,365.06,495.74Z"/><path d="M397.29,499.58h-5V488.71a5.71,5.71,0,0,0-.81-3.41,2.69,2.69,0,0,0-2.26-1.07,4.14,4.14,0,0,0-1.51.3,5.38,5.38,0,0,0-1.47.83,7.12,7.12,0,0,0-1.24,1.27,5.08,5.08,0,0,0-.81,1.63v11.32h-5V480.2h4.48v3.59a7.26,7.26,0,0,1,3.11-2.89,9.94,9.94,0,0,1,4.59-1,5.92,5.92,0,0,1,3,.67,4.77,4.77,0,0,1,1.77,1.74,7.22,7.22,0,0,1,.87,2.44,16.05,16.05,0,0,1,.24,2.78Z"/><path d="M410.61,500a10.79,10.79,0,0,1-4.22-.79,9.53,9.53,0,0,1-5.27-5.35,10.24,10.24,0,0,1-.72-3.81,10.75,10.75,0,0,1,.7-3.9,9.52,9.52,0,0,1,5.27-5.42,10.85,10.85,0,0,1,4.28-.82,10.5,10.5,0,0,1,4.23.82,9.77,9.77,0,0,1,3.19,2.18,9.2,9.2,0,0,1,2,3.18,10.55,10.55,0,0,1,.69,3.78c0,.32,0,.63,0,.92a3.55,3.55,0,0,1-.09.74h-15a5.84,5.84,0,0,0,.56,2,5.06,5.06,0,0,0,1.14,1.51,5.12,5.12,0,0,0,1.6,1,5.23,5.23,0,0,0,1.85.33,5.74,5.74,0,0,0,2.79-.72,3.83,3.83,0,0,0,1.79-1.91l4.26,1.19a8.7,8.7,0,0,1-3.42,3.64A10.63,10.63,0,0,1,410.61,500Zm5-11.69a5.12,5.12,0,0,0-1.61-3.49,4.9,4.9,0,0,0-3.46-1.32,5,5,0,0,0-1.86.35,4.87,4.87,0,0,0-2.63,2.5,5.25,5.25,0,0,0-.5,2Z"/><path d="M435.33,484.49a9.66,9.66,0,0,0-4,.87,5.09,5.09,0,0,0-2.55,2.5v11.72h-5V480.2h4.55v4.14a9.24,9.24,0,0,1,1.22-1.79,9.42,9.42,0,0,1,1.52-1.39,6.75,6.75,0,0,1,1.65-.91,4.5,4.5,0,0,1,1.61-.31h.61a2.56,2.56,0,0,1,.39,0Z"/></svg>
